<?xml version="1.0" encoding="UTF-8"?>
<svg id="Layer_1" data-name="Layer 1" xmlns="http://www.w3.org/2000/svg" xmlns:xlink="http://www.w3.org/1999/xlink" viewBox="0 0 496.07 112.28">
  <defs>
    <style>
      .cls-1, .cls-2, .cls-3 {
        mix-blend-mode: multiply;
      }

      .cls-1, .cls-4 {
        fill: #e9ddb7;
      }

      .cls-5 {
        fill: #199266;
      }

      .cls-6, .cls-3 {
        fill: #a6d0e4;
      }

      .cls-2, .cls-7 {
        fill: #c6dd7f;
      }

      .cls-8 {
        fill: none;
      }

      .cls-9 {
        fill: url(#Alyssa);
      }
    </style>
    <pattern id="Alyssa" x="0" y="0" width="144.13" height="138.36" patternTransform="translate(5911.2 5189.42) scale(1.76)" patternUnits="userSpaceOnUse" viewBox="0 0 144.13 138.36">
      <g>
        <rect class="cls-8" x="0" width="144.13" height="138.36"/>
        <path class="cls-2" d="m211.07,158.52c-11.76-1.38-19.37.35-22.65,3.11-3.02,2.54-4.96,5.41-2.25,11.93,2.94,7.09,1.53,14.73-5.54,15.91-6.22,1.04-10.89-4.84-11.24-12.28-.24-5.18-1.9-8.3-5.53-7.61-3.63.69-4.63,5.9-3.63,11.76,1.38,8.13,5.54,11.76,6.23,20.23.49,6.05-2.94,13.66-12.45,15.04-9.3,1.35-15.91-4.32-16.6-10.55-.73-6.59,3.63-10.89,3.11-17.64-.52-6.75-4.01-10.17-5.88-17.29-2.77-10.55,1.21-19.02,7.78-22.65,14.75-8.15,22.83,3.64,35.97,1.56,10.9-1.73,23.35-18.16,33.03-19.54,8.23-1.17,13.83,4.67,15.04,14.01,1.21,9.34-4.74,15.26-15.39,14.01Zm-42.2.52c0-2.29-1.86-4.15-4.15-4.15s-4.15,1.86-4.15,4.15,1.86,4.15,4.15,4.15,4.15-1.86,4.15-4.15Zm49.46-15.39c0-.96-.78-1.73-1.73-1.73s-1.73.77-1.73,1.73.77,1.73,1.73,1.73,1.73-.77,1.73-1.73Z"/>
        <g>
          <path class="cls-1" d="m48.83,139.33c0,7.17,4.59,13.81-1,16.33-8.5,3.83-28-14.33-28-36.17,0-12,8.67-19,17.83-19,12.33,0,18,8.17,18,17.5s-6.83,13.14-6.83,21.33Zm-5.41-5.37c0-1.15-.93-2.08-2.07-2.08s-2.08.93-2.08,2.08.93,2.08,2.08,2.08,2.07-.93,2.07-2.08Z"/>
          <path class="cls-3" d="m123.53,162.83c-7.87,2.74-19.44-15.3-17.67-27.02,1.24-8.23,7.12-13.19,13.09-14.22,7.53-1.3,12.9,2.6,13.3,7.24.55,6.31-3.63,7.52-4.22,14.96-.56,7.13,3.69,16.19-4.49,19.03Zm-3.79-27.51c0-1.43-1.16-2.59-2.59-2.59s-2.59,1.16-2.59,2.59,1.16,2.59,2.59,2.59,2.59-1.16,2.59-2.59Z"/>
          <path class="cls-1" d="m19.39,140.36c0,1.43-1.16,2.59-2.59,2.59s-2.59-1.16-2.59-2.59,1.16-2.59,2.59-2.59,2.59,1.16,2.59,2.59Z"/>
          <path class="cls-3" d="m84.61,132.64c.74,8.1,12.67,7.02,17.9,14.21,10.52,14.47-1.22,46.37-21.63,46.37-11.74,0-24.22-9.72-24.22-29.22,0-15.83,10.17-21.5,8.25-42.17-1.01-10.83-12.5-20.34-12.5-34.75,0-5.92,3.59-13.45,11.55-13.45,7.05,0,10.82,5.95,10.82,12.9s-5.38,15.74,1.37,19.05c5.24,2.57,13.21-4.77,19.5-6.75,5.19-1.64,12.39.22,14.75,8.5,2.53,8.88-3.25,14.75-11.59,16.69-6.32,1.48-14.8,2.17-14.21,8.61Zm-15.98-30.56c0-1.82-1.47-3.29-3.29-3.29s-3.29,1.47-3.29,3.29,1.47,3.29,3.29,3.29,3.29-1.47,3.29-3.29Zm25.98,9.7c1.29,0,2.33-1.04,2.33-2.33s-1.04-2.33-2.33-2.33-2.33,1.04-2.33,2.33,1.04,2.33,2.33,2.33Zm-19.98,59.67c0-1.82-1.47-3.29-3.29-3.29s-3.29,1.47-3.29,3.29,1.47,3.29,3.29,3.29,3.29-1.47,3.29-3.29Z"/>
          <path class="cls-2" d="m66.94,158.52c-11.76-1.38-19.37.35-22.65,3.11-3.02,2.54-4.95,5.41-2.25,11.93,2.94,7.09,1.53,14.73-5.54,15.91-6.22,1.04-10.89-4.84-11.24-12.28-.24-5.18-1.9-8.3-5.53-7.61-3.63.69-4.63,5.9-3.63,11.76,1.38,8.13,5.54,11.76,6.23,20.23.49,6.05-2.94,13.66-12.45,15.04-9.3,1.35-15.91-4.32-16.6-10.55-.73-6.59,3.63-10.89,3.11-17.64-.52-6.75-4.01-10.17-5.88-17.29-2.77-10.55,1.21-19.02,7.78-22.65,14.75-8.15,22.83,3.64,35.97,1.56,10.9-1.73,23.35-18.16,33.03-19.54,8.23-1.17,13.83,4.67,15.04,14.01,1.21,9.34-4.74,15.26-15.39,14.01Zm-42.2.52c0-2.29-1.86-4.15-4.15-4.15s-4.15,1.86-4.15,4.15,1.86,4.15,4.15,4.15,4.15-1.86,4.15-4.15Zm49.46-15.39c0-.96-.78-1.73-1.73-1.73s-1.73.77-1.73,1.73.77,1.73,1.73,1.73,1.73-.77,1.73-1.73Z"/>
        </g>
        <g>
          <path class="cls-3" d="m190.32,111.99c0,6.23-4.15,10.72-8.65,11.59-4.5.87-8.32-1.28-12.97,1.21-4.84,2.59-7.09,11.07-16.78,11.07-7.96,0-15.22-7.96-15.22-18.85,0-20.23,13.14-29.23,25.59-29.23,16.6,0,28.02,12.62,28.02,24.21Zm-19.71-14.35c0-2.1-1.7-3.8-3.8-3.8s-3.8,1.7-3.8,3.8,1.7,3.8,3.8,3.8,3.8-1.7,3.8-3.8Z"/>
          <path class="cls-2" d="m211.07,20.16c-11.76-1.38-19.37.35-22.65,3.11-3.02,2.54-4.96,5.41-2.25,11.93,2.94,7.09,1.53,14.73-5.54,15.91-6.22,1.04-10.89-4.84-11.24-12.28-.24-5.18-1.9-8.3-5.53-7.61-3.63.69-4.63,5.9-3.63,11.76,1.38,8.13,5.54,11.76,6.23,20.23.49,6.05-2.94,13.66-12.45,15.04-9.3,1.35-15.91-4.32-16.6-10.55-.73-6.59,3.63-10.89,3.11-17.64-.52-6.75-4.01-10.17-5.88-17.29-2.77-10.55,1.21-19.02,7.78-22.65,14.75-8.15,22.83,3.64,35.97,1.56,10.9-1.73,23.35-18.16,33.03-19.54,8.23-1.17,13.83,4.67,15.04,14.01,1.21,9.34-4.74,15.26-15.39,14.01Zm-42.2.52c0-2.29-1.86-4.15-4.15-4.15s-4.15,1.86-4.15,4.15,1.86,4.15,4.15,4.15,4.15-1.86,4.15-4.15Zm49.46-15.39c0-.96-.78-1.73-1.73-1.73s-1.73.77-1.73,1.73.77,1.73,1.73,1.73,1.73-.77,1.73-1.73Z"/>
        </g>
        <g>
          <path class="cls-3" d="m31.83,83.64c-13.96,1.99-21.17-13.33-17.67-20.33,3.67-7.33,12.12-4.17,19.5-4.17,9.67,0,16.37-7.57,20.42-2.25,4.25,5.58-5.01,24.29-22.25,26.75Zm.52-17.48c0-1.24-1.01-2.25-2.25-2.25s-2.25,1.01-2.25,2.25,1.01,2.25,2.25,2.25,2.25-1.01,2.25-2.25Z"/>
          <path class="cls-1" d="m48.83.97c0,7.17,4.59,13.81-1,16.33-8.5,3.83-28-14.33-28-36.17,0-12,8.67-19,17.83-19,12.33,0,18,8.17,18,17.5s-6.83,13.14-6.83,21.33Zm-5.41-5.37c0-1.15-.93-2.08-2.07-2.08s-2.08.93-2.08,2.08.93,2.08,2.08,2.08,2.07-.93,2.07-2.08Z"/>
          <path class="cls-3" d="m46.19,111.99c0,6.23-4.15,10.72-8.65,11.59-4.5.87-8.32-1.28-12.97,1.21-4.84,2.59-7.09,11.07-16.77,11.07-7.96,0-15.22-7.96-15.22-18.85,0-20.23,13.14-29.23,25.59-29.23,16.6,0,28.02,12.62,28.02,24.21Zm-19.71-14.35c0-2.1-1.7-3.8-3.8-3.8s-3.8,1.7-3.8,3.8,1.7,3.8,3.8,3.8,3.8-1.7,3.8-3.8Z"/>
          <path class="cls-2" d="m45.5,88.3c0,1.34-1.08,2.42-2.42,2.42s-2.42-1.08-2.42-2.42,1.08-2.42,2.42-2.42,2.42,1.08,2.42,2.42Z"/>
          <path class="cls-3" d="m129.2,69.79c-3.19,4.68,1.04,10.72-1.38,15.22-2.42,4.5-6.74,5.02-9.86,2.6-3.63-2.83-3.41-6.64-8.3-8.82-5.53-2.46-17.98,2.25-19.71-7.26-.87-4.81,2.37-8.57,7.26-9.68,6.05-1.38,9.35-.18,15.39-3.11,6.05-2.94,11.24-8.99,22.14-12.11,10.41-2.97,16.07,1.56,16.6,5.88,1.04,8.47-17.13,9.95-22.14,17.29Zm-2.25-7.44c0-1.24-1.01-2.25-2.25-2.25s-2.25,1.01-2.25,2.25,1.01,2.25,2.25,2.25,2.25-1.01,2.25-2.25Z"/>
          <path class="cls-1" d="m156.17,108.97c0,17.17-14.5,25.5-27,22.83-10.26-2.19-12.83-17.33-16.67-26.17-3.71-8.56-8.83-22.5-20.17-22.5s-12.83,14.5-23.67,14.5-24.5-15.67-24.5-39.67c0-14.67,9.8-31.46,20.83-30.67,11.67.83,4.5,19.67,15.33,19.67,9.5,0,7.86-16.26,9.17-23.33,1.67-9,6.83-14.17,18.5-13.17,14.44,1.24,22.33,13.5,18.87,23.34-4.03,11.45-23.87,17.32-21.54,30.49,1.35,7.59,13,12,26,16.17,14.53,4.66,24.83,11.33,24.83,28.5Zm-44.95-75.84c0,1.82,1.47,3.29,3.29,3.29s3.29-1.47,3.29-3.29-1.47-3.29-3.29-3.29-3.29,1.47-3.29,3.29Zm-46.69,24.9c0-.96-.77-1.73-1.73-1.73s-1.73.78-1.73,1.73.78,1.73,1.73,1.73,1.73-.77,1.73-1.73Zm17.47,10.72c0-2.1-1.7-3.8-3.8-3.8s-3.8,1.7-3.8,3.8,1.71,3.8,3.8,3.8,3.8-1.7,3.8-3.8Zm19.89-15.56c0-.86-.7-1.56-1.56-1.56s-1.56.7-1.56,1.56.7,1.56,1.56,1.56,1.56-.7,1.56-1.56Zm29.64,54.69c0-1.75-1.42-3.17-3.17-3.17s-3.17,1.42-3.17,3.17,1.42,3.17,3.17,3.17,3.17-1.42,3.17-3.17Z"/>
          <path class="cls-3" d="m123.53,24.47c-7.87,2.74-19.44-15.3-17.67-27.02,1.24-8.23,7.12-13.19,13.09-14.22,7.53-1.3,12.9,2.6,13.3,7.24.55,6.31-3.63,7.52-4.22,14.96-.56,7.13,3.69,16.19-4.49,19.03Zm-3.79-27.51c0-1.43-1.16-2.59-2.59-2.59s-2.59,1.16-2.59,2.59,1.16,2.59,2.59,2.59,2.59-1.16,2.59-2.59Z"/>
          <path class="cls-1" d="m19.39,2c0,1.43-1.16,2.59-2.59,2.59s-2.59-1.16-2.59-2.59,1.16-2.59,2.59-2.59,2.59,1.16,2.59,2.59Z"/>
          <path class="cls-1" d="m153.38,88.74c0-8.41-5.08-15.23-11.34-15.23s-11.34,6.82-11.34,15.23,5.08,12.44,11.34,12.44,11.34-4.03,11.34-12.44Z"/>
          <path class="cls-3" d="m84.61-5.72c.74,8.1,12.67,7.02,17.9,14.21,10.52,14.47-1.22,46.37-21.63,46.37-11.74,0-24.22-9.72-24.22-29.22,0-15.83,10.17-21.5,8.25-42.17-1.01-10.83-12.5-20.34-12.5-34.75,0-5.92,3.59-13.45,11.55-13.45,7.05,0,10.82,5.95,10.82,12.9s-5.38,15.74,1.37,19.05c5.24,2.57,13.21-4.77,19.5-6.75,5.19-1.64,12.39.22,14.75,8.5,2.53,8.88-3.25,14.75-11.59,16.69-6.32,1.48-14.8,2.17-14.21,8.61Zm-15.98-30.56c0-1.82-1.47-3.29-3.29-3.29s-3.29,1.47-3.29,3.29,1.47,3.29,3.29,3.29,3.29-1.47,3.29-3.29Zm25.98,9.7c1.29,0,2.33-1.04,2.33-2.33s-1.04-2.33-2.33-2.33-2.33,1.04-2.33,2.33,1.04,2.33,2.33,2.33Zm-19.98,59.67c0-1.82-1.47-3.29-3.29-3.29s-3.29,1.47-3.29,3.29,1.47,3.29,3.29,3.29,3.29-1.47,3.29-3.29Z"/>
          <path class="cls-2" d="m66.94,20.16c-11.76-1.38-19.37.35-22.65,3.11-3.02,2.54-4.95,5.41-2.25,11.93,2.94,7.09,1.53,14.73-5.54,15.91-6.22,1.04-10.89-4.84-11.24-12.28-.24-5.18-1.9-8.3-5.53-7.61-3.63.69-4.63,5.9-3.63,11.76,1.38,8.13,5.54,11.76,6.23,20.23.49,6.05-2.94,13.66-12.45,15.04-9.3,1.35-15.91-4.32-16.6-10.55-.73-6.59,3.63-10.89,3.11-17.64-.52-6.75-4.01-10.17-5.88-17.29-2.77-10.55,1.21-19.02,7.78-22.65,14.75-8.15,22.83,3.64,35.97,1.56,10.9-1.73,23.35-18.16,33.03-19.54,8.23-1.17,13.83,4.67,15.04,14.01,1.21,9.34-4.74,15.26-15.39,14.01Zm-42.2.52c0-2.29-1.86-4.15-4.15-4.15s-4.15,1.86-4.15,4.15,1.86,4.15,4.15,4.15,4.15-1.86,4.15-4.15Zm49.46-15.39c0-.96-.78-1.73-1.73-1.73s-1.73.77-1.73,1.73.77,1.73,1.73,1.73,1.73-.77,1.73-1.73Z"/>
          <path class="cls-2" d="m130.24,42.47c0,.76-.62,1.38-1.38,1.38s-1.38-.62-1.38-1.38.62-1.38,1.38-1.38,1.38.62,1.38,1.38Z"/>
          <path class="cls-4" d="m135.77,4.08c0,1.24-1.01,2.25-2.25,2.25s-2.25-1.01-2.25-2.25,1.01-2.25,2.25-2.25,2.25,1.01,2.25,2.25Z"/>
          <path class="cls-6" d="m52.24,27.25c0,.67-.54,1.21-1.21,1.21s-1.21-.54-1.21-1.21.54-1.21,1.21-1.21,1.21.54,1.21,1.21Z"/>
          <path class="cls-6" d="m48.61,95.73c0,.76-.62,1.38-1.38,1.38s-1.38-.62-1.38-1.38.62-1.38,1.38-1.38,1.38.62,1.38,1.38Z"/>
          <path class="cls-1" d="m133.18,73.77c0,.67-.54,1.21-1.21,1.21s-1.21-.54-1.21-1.21.54-1.21,1.21-1.21,1.21.54,1.21,1.21Z"/>
          <path class="cls-7" d="m95.89,91.69c0,1.88-1.53,3.41-3.41,3.41s-3.41-1.53-3.41-3.41,1.53-3.41,3.41-3.41,3.41,1.53,3.41,3.41Z"/>
          <path class="cls-1" d="m100.87,131.55c0,1.16-.94,2.1-2.1,2.1s-2.1-.94-2.1-2.1.94-2.1,2.1-2.1,2.1.94,2.1,2.1Z"/>
          <path class="cls-1" d="m62.07,125.25c0,.87-.7,1.57-1.57,1.57s-1.57-.7-1.57-1.57.71-1.57,1.57-1.57,1.57.71,1.57,1.57Z"/>
          <circle class="cls-7" cx="133.12" cy="11.21" r="2.62"/>
          <circle class="cls-3" cx="123.15" cy="46.07" r="2.36"/>
          <path class="cls-4" d="m27.72,52.63c0,1.45-1.17,2.62-2.62,2.62s-2.62-1.17-2.62-2.62,1.17-2.62,2.62-2.62,2.62,1.17,2.62,2.62Z"/>
          <path class="cls-3" d="m22.74,45.55c0,.72-.59,1.31-1.31,1.31s-1.31-.59-1.31-1.31.59-1.31,1.31-1.31,1.31.59,1.31,1.31Z"/>
          <path class="cls-1" d="m86.97,97.46c0,.87-.71,1.57-1.57,1.57s-1.57-.7-1.57-1.57.7-1.57,1.57-1.57,1.57.71,1.57,1.57Z"/>
        </g>
        <g>
          <path class="cls-3" d="m-14.93,69.79c-3.19,4.68,1.04,10.72-1.38,15.22-2.42,4.5-6.74,5.02-9.86,2.6-3.63-2.83-3.41-6.64-8.3-8.82-5.53-2.46-17.98,2.25-19.71-7.26-.88-4.81,2.38-8.57,7.26-9.68,6.05-1.38,9.35-.18,15.39-3.11,6.05-2.94,11.24-8.99,22.14-12.11,10.41-2.97,16.07,1.56,16.6,5.88,1.04,8.47-17.13,9.95-22.14,17.29Zm-2.25-7.44c0-1.24-1.01-2.25-2.25-2.25s-2.25,1.01-2.25,2.25,1.01,2.25,2.25,2.25,2.25-1.01,2.25-2.25Z"/>
          <path class="cls-1" d="m12.04,108.97c0,17.17-14.5,25.5-27,22.83-10.26-2.19-12.83-17.33-16.67-26.17-3.71-8.56-8.83-22.5-20.17-22.5s-12.83,14.5-23.67,14.5-24.5-15.67-24.5-39.67c0-14.67,9.8-31.46,20.83-30.67,11.67.83,4.5,19.67,15.33,19.67,9.5,0,7.86-16.26,9.17-23.33,1.67-9,6.83-14.17,18.5-13.17,14.44,1.24,22.33,13.5,18.87,23.34-4.03,11.45-23.87,17.32-21.54,30.49,1.35,7.59,13,12,26,16.17,14.53,4.66,24.83,11.33,24.83,28.5ZM-32.91,33.13c0,1.82,1.47,3.29,3.29,3.29s3.29-1.47,3.29-3.29-1.47-3.29-3.29-3.29-3.29,1.47-3.29,3.29Zm-46.69,24.9c0-.96-.77-1.73-1.73-1.73s-1.73.78-1.73,1.73.78,1.73,1.73,1.73,1.73-.77,1.73-1.73Zm17.47,10.72c0-2.1-1.7-3.8-3.8-3.8s-3.8,1.7-3.8,3.8,1.71,3.8,3.8,3.8,3.8-1.7,3.8-3.8Zm19.89-15.56c0-.86-.7-1.56-1.56-1.56s-1.56.7-1.56,1.56.7,1.56,1.56,1.56,1.56-.7,1.56-1.56Zm29.64,54.69c0-1.75-1.42-3.17-3.17-3.17s-3.17,1.42-3.17,3.17,1.42,3.17,3.17,3.17,3.17-1.42,3.17-3.17Z"/>
          <path class="cls-1" d="m9.26,88.74c0-8.41-5.08-15.23-11.34-15.23s-11.34,6.82-11.34,15.23,5.08,12.44,11.34,12.44,11.34-4.03,11.34-12.44Z"/>
        </g>
      </g>
    </pattern>
  </defs>
  <g>
    <path class="cls-6" d="m6.48,0h80.31l-6.8,32h-24l-17.06,80.16H6.94L24,32H0L6.48,0Z"/>
    <path class="cls-6" d="m255.39,0c26.66,0,37.14,13.33,31.44,40-4.53,21.33-12.43,33.36-23.68,36.08l13.6,36.08h-37.82l-15.86-35.6,3.75-18.08,19.16-.16c5.33,0,7.72-12.98,8.85-18.31,1.17-5.33-.91-8-6.24-8h-24l-17.04,79.99h-32l20.4-96.07-12.48-15.92h71.91Z"/>
    <path class="cls-6" d="m183.23,0l-6.8,32h-47.92l-10.24,48h47.91l-6.8,32h-79.99L99.8,16,87.24,0h95.99Zm-48.55,40h40l-6.8,32h-40l6.8-32Z"/>
    <path class="cls-6" d="m381.23,0l-12.56,16,20.4,95.99h-79.99l-6.8-32h47.91l-10.24-48h-47.92l-6.8-32h95.99Zm-40.64,71.99h-40l-6.8-32h40l6.8,32Z"/>
    <path class="cls-6" d="m411.76.05l2.79,16.97,6.14,36.19L475.27,0l20.8,112.09-29.01.03-7.77-45.76-57.8,45.92L382.47.07h29.28Z"/>
  </g>
  <g>
    <path class="cls-9" d="m6.48,0h80.31l-6.8,32h-24l-17.06,80.16H6.94L24,32H0L6.48,0Z"/>
    <path class="cls-9" d="m255.39,0c26.66,0,37.14,13.33,31.44,40-4.53,21.33-12.43,33.36-23.68,36.08l13.6,36.08h-37.82l-15.86-35.6,3.75-18.08,19.16-.16c5.33,0,7.72-12.98,8.85-18.31,1.17-5.33-.91-8-6.24-8h-24l-17.04,79.99h-32l20.4-96.07-12.48-15.92h71.91Z"/>
    <path class="cls-9" d="m183.23,0l-6.8,32h-47.92l-10.24,48h47.91l-6.8,32h-79.99L99.8,16,87.24,0h95.99Zm-48.55,40h40l-6.8,32h-40l6.8-32Z"/>
    <path class="cls-9" d="m381.23,0l-12.56,16,20.4,95.99h-79.99l-6.8-32h47.91l-10.24-48h-47.92l-6.8-32h95.99Zm-40.64,71.99h-40l-6.8-32h40l6.8,32Z"/>
    <path class="cls-9" d="m411.76.05l2.79,16.97,6.14,36.19L475.27,0l20.8,112.09-29.01.03-7.77-45.76-57.8,45.92L382.47.07h29.28Z"/>
  </g>
  <g>
    <path class="cls-5" d="m6.48,0h80.31l-6.8,32h-24l-17.06,80.16H6.94L24,32H0L6.48,0Z"/>
    <path class="cls-5" d="m255.39,0c26.66,0,37.14,13.33,31.44,40-4.53,21.33-12.43,33.36-23.68,36.08l13.6,36.08h-37.82l-15.86-35.6,3.75-18.08,19.16-.16c5.33,0,7.72-12.98,8.85-18.31,1.17-5.33-.91-8-6.24-8h-24l-17.04,79.99h-32l20.4-96.07-12.48-15.92h71.91Z"/>
    <path class="cls-5" d="m183.23,0l-6.8,32h-47.92l-10.24,48h47.91l-6.8,32h-79.99L99.8,16,87.24,0h95.99Zm-48.55,40h40l-6.8,32h-40l6.8-32Z"/>
    <path class="cls-5" d="m381.23,0l-12.56,16,20.4,95.99h-79.99l-6.8-32h47.91l-10.24-48h-47.92l-6.8-32h95.99Zm-40.64,71.99h-40l-6.8-32h40l6.8,32Z"/>
    <path class="cls-5" d="m411.76.05l2.79,16.97,6.14,36.19L475.27,0l20.8,112.09-29.01.03-7.77-45.76-57.8,45.92L382.47.07h29.28Z"/>
  </g>
</svg>